<svg version="1.1" id="Sparkles--Streamline-Noto-Emoji" xmlns="http://www.w3.org/2000/svg" xmlns:xlink="http://www.w3.org/1999/xlink" x="0" y="0" viewBox="0 0 32 32" xml:space="preserve" enable-background="new 0 0 128 128" height="32" width="32">
  <desc>
    Sparkles Streamline Emoji: https://streamlinehq.com
  </desc>
  <g>
    <g>
      <path d="m31.284525 15.426525 -3.68135 -1.1866c-2.3547 -0.776975 -3.734225 -2.6824 -4.3817 -5.076725l-1.62 -7.891275c-0.0423 -0.155925 -0.14535 -0.3647 -0.4625 -0.3647 -0.2669 0 -0.420175 0.208775 -0.462475 0.3647l-1.62 7.8939c-0.650125 2.39435 -2.027 4.299775 -4.3817 5.07675l-3.68135 1.1866c-0.520625 0.169125 -0.52855 0.903825 -0.010575 1.080875l3.707775 1.27645c2.346775 0.779625 3.715725 2.6824 4.36585 5.066175l1.62265 7.80405c0.042275 0.155925 0.1295 0.43605 0.462475 0.43605 0.3515 0 0.4202 -0.280125 0.462475 -0.43605l1.622675 -7.80405c0.6501 -2.386425 2.01905 -4.2892 4.365825 -5.066175l3.707775 -1.27645c0.5127 -0.1797 0.504775 -0.9144 -0.01585 -1.083525Z" fill="#FDD835" stroke-width="0.25"></path>
      <path d="M31.633375 15.756875c-0.05815 -0.14535 -0.171775 -0.272225 -0.34885 -0.33035l-3.68135 -1.1866c-2.3547 -0.776975 -3.734225 -2.6824 -4.3817 -5.076725l-1.62 -7.891275c-0.0238 -0.08985 -0.10835 -0.2537 -0.20615 -0.301275l0.523275 7.920325c0.388475 3.6153 0.721475 5.317225 3.60735 5.814075 2.478925 0.428125 5.3463 0.919675 6.107425 1.051825Z" fill="#FFEE58" stroke-width="0.25"></path>
      <path d="m31.6413 16.169125 -6.3849 1.4641c-2.248975 0.570825 -3.488425 1.873725 -3.488425 5.282875l-0.62635 8.176675c0.214075 -0.021125 0.3885 -0.137425 0.4625 -0.43605l1.62265 -7.80405c0.6501 -2.386425 2.01905 -4.2892 4.365825 -5.066175l3.707775 -1.27645c0.174425 -0.063425 0.285425 -0.192925 0.340925 -0.3409Z" fill="#F4B400" stroke-width="0.25"></path>
    </g>
    <g>
      <path d="M10.200625 22.2924c-2.201425 -0.72675 -2.402275 -1.546 -2.77225 -2.928175L6.50605 16.1295c-0.0555 -0.208775 -0.5999 -0.208775 -0.65805 0l-0.626325 2.98895c-0.372625 1.376875 -1.16545 2.470975 -2.51855 2.9176l-2.1565 0.93555c-0.298625 0.097775 -0.3039 0.5206 -0.005275 0.621025l2.17235 0.76905c1.3478 0.446625 2.13535 1.540725 2.5106 2.912325l0.62635 2.85945c0.058125 0.208775 0.5999 0.208775 0.6554 0l0.734675 -2.84625c0.372625 -1.3795 0.943475 -2.47625 2.7749 -2.925525l2.0402 -0.769025c0.29865 -0.103075 0.296 -0.525925 -0.005275 -0.6237l-1.849925 -0.67655Z" fill="#FDD835" stroke-width="0.25"></path>
      <path d="M6.680475 19.31665c0.224625 2.077225 0.338275 2.653325 2.0217 3.0841l3.50695 0.684475c-0.037 -0.0502 -0.089875 -0.0925 -0.161225 -0.113625l-1.849925 -0.6792c-1.93185 -0.6607 -2.4657 -1.501075 -2.82775 -3.181875 -0.36205 -1.6808 -0.7479 -2.77755 -0.7479 -2.77755 -0.134775 -0.36205 -0.3277 -0.34355 -0.3277 -0.34355l0.38585 3.327225Z" fill="#FFEE58" stroke-width="0.25"></path>
      <path d="M6.7439 26.568375c0 -1.958275 1.0703 -2.928175 2.77225 -2.928175l2.64805 -0.10835s-0.1533 0.2035 -0.4202 0.266925l-1.728375 0.5629c-1.466725 0.58935 -2.13535 0.885325 -2.5899 2.891175 0 0 -0.5867 2.33355 -0.697675 2.579325 -0.1533 0.343575 -0.33565 0.414925 -0.33565 0.414925l0.3515 -3.678725Z" fill="#F4B400" stroke-width="0.25"></path>
    </g>
    <path d="M14.939075 6.78735c0.148 -0.0502 0.142725 -0.261625 -0.007925 -0.303925l-2.0402 -0.549675c-0.428125 -0.1163 -0.761125 -0.446625 -0.882675 -0.872125L11.204875 1.744975c-0.03965 -0.1612 -0.269575 -0.1612 -0.3092 0.00265l-0.755825 3.30345c-0.1163 0.438675 -0.45985 0.77695 -0.89855 0.8906l-2.027 0.5259c-0.150625 0.03965 -0.1612 0.251075 -0.0132 0.303925l2.137975 0.739975c0.3832 0.132125 0.6792 0.443975 0.795475 0.83245l0.76375 3.062975c0.03965 0.15855 0.266925 0.1612 0.306575 0l0.790175 -3.073525c0.118925 -0.3885 0.41755 -0.6977 0.8034 -0.8272l2.140625 -0.718825Z" fill="#F4B400" stroke="#F4B400" stroke-miterlimit="10" stroke-width="0.25"></path>
  </g>
</svg>